PathFileType	4	(X/Y/Z)	c:/Users/goper/Files/vsCode/490R/osim_files/C08/C08_Fast_01.trc
DataRate	CameraRate	NumFrames	NumMarkers	Units                	OrigDataRate	OrigDataStartFrame	OrigNumFrames
250.00	250.00	4	36	mm	250.0	1416	2264
                Frame#	Time	LPSIS			LASIS			LTH1			LTH2			LTH3			LTH4			LLFE			LMFE			LSH1			LSH2			LSH3			LSH4			LLMAL			LMMAL			LCAL			LMTP5			LTOE			LMTP1			RPSIS			RASIS			RTH1			RTH2			RTH3			RTH4			RLFE			RMFE			RSH1			RSH2			RSH3			RSH4			RLMAL			RMMAL			RCAL			RMTP1			RTOE			RMTP5		
		X1	Y1	Z1	X2	Y2	Z2	X3	Y3	Z3	X4	Y4	Z4	X5	Y5	Z5	X6	Y6	Z6	X7	Y7	Z7	X8	Y8	Z8	X9	Y9	Z9	X10	Y10	Z10	X11	Y11	Z11	X12	Y12	Z12	X13	Y13	Z13	X14	Y14	Z14	X15	Y15	Z15	X16	Y16	Z16	X17	Y17	Z17	X18	Y18	Z18	X19	Y19	Z19	X20	Y20	Z20	X21	Y21	Z21	X22	Y22	Z22	X23	Y23	Z23	X24	Y24	Z24	X25	Y25	Z25	X26	Y26	Z26	X27	Y27	Z27	X28	Y28	Z28	X29	Y29	Z29	X30	Y30	Z30	X31	Y31	Z31	X32	Y32	Z32	X33	Y33	Z33	X34	Y34	Z34	X35	Y35	Z35	X36	Y36	Z36

1416	5.66000	-2058.74414	1047.86670	278.39551	-2267.77222	1004.10309	360.69965	-2136.19482	733.71350	427.11118	-2120.13208	659.49139	406.55692	-2108.12866	588.13605	397.41885	-2198.34448	654.88361	387.02530	-2096.60278	538.89734	388.43625	-2098.82935	529.79706	258.74524	-2018.63477	422.81805	395.96112	-2016.84192	375.79987	395.53226	-2079.34644	414.44901	393.88657	-2068.03345	370.01886	391.12518	-1977.65430	104.35807	331.23257	-1999.33203	114.41832	242.01929	-1909.91113	84.66290	276.05939	-2088.49438	42.38948	358.24710	-2151.31738	57.70903	299.43140	-2113.68433	43.87917	246.87701	-2058.18018	1041.68335	218.73407	-2252.70361	1008.25604	125.63647	-2275.80078	752.36017	64.76077	-2311.02661	681.77344	76.53577	-2344.96582	608.07690	90.60711	-2376.61743	715.87708	103.94274	-2372.94897	550.51654	99.92934	-2382.64404	541.31433	226.67473	-2330.37305	462.82410	84.71824	-2340.86743	420.08411	76.22543	-2391.95361	470.69345	88.79963	-2394.38574	426.54898	81.32796	-2378.83130	117.98747	121.59573	-2414.08643	124.51239	206.34695	-2328.61938	83.56373	194.62819	-2545.32104	83.19113	180.05638	-2552.29956	108.61778	126.60498	-2501.99585	77.75009	71.58122
1417	5.66400	-2064.74146	1046.79199	278.26862	-2272.89990	1002.86865	360.98248	-2139.69507	733.29602	427.13351	-2123.49414	659.18481	406.55911	-2111.09595	587.92914	397.40610	-2201.70874	654.15192	386.97580	-2099.40137	538.56024	388.61554	-2101.43555	529.66760	258.78424	-2020.56812	423.10931	395.93689	-2018.56323	376.17020	395.58218	-2081.25146	414.40948	393.93408	-2069.73706	370.06125	391.16553	-1977.96118	104.74346	331.18259	-1999.72522	114.72720	241.97548	-1910.17798	85.20778	276.03119	-2088.52759	42.34729	358.28122	-2151.41919	57.53058	299.45029	-2113.92114	43.98766	246.77672	-2064.36353	1040.55652	218.59444	-2258.48145	1007.15271	125.60052	-2279.63452	750.56659	64.69824	-2313.52490	679.41785	78.15301	-2348.72949	606.13239	90.03413	-2380.64282	714.00055	103.45221	-2377.88623	549.09399	99.71988	-2387.67725	539.96790	226.39061	-2337.52905	460.50174	84.34664	-2348.03687	418.39798	75.60627	-2397.85645	469.66180	88.62057	-2402.09888	426.01663	80.81616	-2394.99731	116.73828	121.80164	-2429.40698	124.41801	205.76688	-2345.00781	81.43446	193.78839	-2561.17969	86.57656	179.92047	-2568.48315	111.94415	126.78111	-2518.88647	79.91658	71.21698
1418	5.66800	-2069.41895	1046.20361	277.68753	-2278.01562	1001.59943	361.23846	-2143.55273	732.88092	427.18698	-2126.97241	658.88843	406.56812	-2113.90332	587.62854	397.35550	-2205.04810	653.44025	386.90927	-2102.53662	538.43915	388.56824	-2104.36060	529.85620	258.61154	-2022.55176	423.44785	395.85373	-2020.15967	376.37335	395.47565	-2083.15088	414.32974	393.91895	-2071.36865	370.03513	391.16083	-1978.26782	105.14336	331.11749	-2000.12170	115.04312	241.95691	-1910.42249	85.82703	275.98935	-2088.55176	42.28122	358.29904	-2151.48877	57.32933	299.43607	-2113.89795	43.77583	246.96112	-2069.16089	1039.94165	218.02481	-2264.30054	1006.07104	125.58520	-2283.47070	748.71082	64.47689	-2318.74170	678.24500	77.49575	-2352.25342	604.10767	89.38234	-2384.58789	711.97803	102.88964	-2382.99292	547.70105	99.52943	-2392.50854	538.64301	226.13564	-2343.78345	458.69650	83.70903	-2357.27637	416.31723	74.98795	-2404.82666	469.29257	87.99026	-2409.71606	425.51755	80.38956	-2409.66431	114.61220	122.09403	-2444.41309	124.61750	205.18430	-2361.89648	79.22102	193.26039	-2577.63184	90.07247	179.66460	-2583.56689	115.62567	126.20803	-2535.25122	82.25414	70.84969
1419	5.67200	-2075.34741	1045.08923	277.55093	-2283.18530	1000.37189	361.57657	-2147.74121	732.44867	427.31973	-2130.44458	658.55450	406.56668	-2117.05933	587.41602	397.35843	-2208.51221	652.74268	386.83698	-2105.28687	538.32800	388.62820	-2107.06470	529.70544	258.66727	-2024.56750	423.76575	395.88223	-2021.88831	376.71371	395.49197	-2085.08911	414.30243	393.96045	-2073.09106	370.05383	391.22333	-1978.52295	105.55322	331.07568	-2000.54626	115.39059	241.93918	-1910.68652	86.48521	275.96146	-2088.55420	42.23220	358.32697	-2151.58496	57.13152	299.48425	-2114.09058	43.86940	246.88968	-2075.21265	1038.80603	217.87909	-2270.14893	1004.94244	125.55628	-2287.34399	746.90875	64.17437	-2322.48364	676.38733	77.11990	-2355.31714	601.86743	88.78743	-2388.47656	709.88385	102.29754	-2387.63477	546.11823	99.31497	-2397.43408	537.28717	225.86545	-2349.95459	456.80563	81.76254	-2364.19116	414.92114	74.56764	-2411.51831	468.71127	87.63160	-2417.02051	425.04526	79.79967	-2425.72046	115.47242	120.68291	-2459.08105	124.93106	204.64397	-2377.55151	77.57442	192.53252	-2593.14697	93.66808	179.44597	-2598.65234	119.30599	126.03375	-2551.26904	84.69523	70.52901
